# xmcd
#
# Track frame offsets:
#	150
#	39055
#	63257
#	87820
#	110173
#	151070
#	191525
#
# Disc length: 2939 seconds
#
# Revision: 3
# Processed by: cddbd v1.5.2PL0 Copyright (c) Steve Scherf et al.
# Submitted via: audiograbber 1.83.01
#
DISCID=4a0b7907
DTITLE=Omar Sosa - Promise
DYEAR=2007
DGENRE=Jazz
TTITLE0=Eleggua En Do [live]
TTITLE1=Two Afreecanos [live]
TTITLE2=Welcome [live]
TTITLE3=A Moment [live]
TTITLE4=Afreecanos West [live]
TTITLE5=Weekend Soft [live]
TTITLE6=Iyade [live]
EXTD=
EXTT0=
EXTT1=
EXTT2=
EXTT3=
EXTT4=
EXTT5=
EXTT6=
PLAYORDER=
